<mxfile host="app.diagrams.net" agent="Mozilla/5.0 (Windows NT 10.0; Win64; x64) AppleWebKit/537.36 (KHTML, like Gecko) Chrome/132.0.0.0 Safari/537.36" version="26.0.11">
  <diagram name="Pagina-1" id="MSs8Dhvhf93qKQDW9ePJ">
    <mxGraphModel dx="4974" dy="738" grid="1" gridSize="10" guides="1" tooltips="1" connect="1" arrows="1" fold="1" page="1" pageScale="1" pageWidth="3300" pageHeight="4681" math="0" shadow="0">
      <root>
        <mxCell id="0" />
        <mxCell id="1" parent="0" />
        <mxCell id="JK_t3SRdudCWYbcd_Vwk-64" style="edgeStyle=orthogonalEdgeStyle;rounded=0;orthogonalLoop=1;jettySize=auto;html=1;exitX=0.75;exitY=1;exitDx=0;exitDy=0;entryX=0.25;entryY=0;entryDx=0;entryDy=0;" edge="1" parent="1" source="JK_t3SRdudCWYbcd_Vwk-1" target="JK_t3SRdudCWYbcd_Vwk-63">
          <mxGeometry relative="1" as="geometry" />
        </mxCell>
        <mxCell id="JK_t3SRdudCWYbcd_Vwk-66" style="edgeStyle=orthogonalEdgeStyle;rounded=0;orthogonalLoop=1;jettySize=auto;html=1;exitX=1;exitY=0.5;exitDx=0;exitDy=0;entryX=0;entryY=0.5;entryDx=0;entryDy=0;" edge="1" parent="1" source="JK_t3SRdudCWYbcd_Vwk-1" target="JK_t3SRdudCWYbcd_Vwk-62">
          <mxGeometry relative="1" as="geometry" />
        </mxCell>
        <mxCell id="JK_t3SRdudCWYbcd_Vwk-1" value="Kick-off meeting with site/client" style="rounded=0;whiteSpace=wrap;html=1;" vertex="1" parent="1">
          <mxGeometry x="440" y="290" width="120" height="60" as="geometry" />
        </mxCell>
        <mxCell id="JK_t3SRdudCWYbcd_Vwk-15" style="edgeStyle=orthogonalEdgeStyle;rounded=0;orthogonalLoop=1;jettySize=auto;html=1;exitX=0.5;exitY=0;exitDx=0;exitDy=0;" edge="1" parent="1" source="JK_t3SRdudCWYbcd_Vwk-2" target="JK_t3SRdudCWYbcd_Vwk-1">
          <mxGeometry relative="1" as="geometry" />
        </mxCell>
        <mxCell id="JK_t3SRdudCWYbcd_Vwk-2" value="Kick-off presentation with overview of processes" style="shape=document;whiteSpace=wrap;html=1;boundedLbl=1;" vertex="1" parent="1">
          <mxGeometry x="310" y="420" width="120" height="80" as="geometry" />
        </mxCell>
        <mxCell id="JK_t3SRdudCWYbcd_Vwk-78" style="edgeStyle=orthogonalEdgeStyle;rounded=0;orthogonalLoop=1;jettySize=auto;html=1;exitX=1;exitY=0.5;exitDx=0;exitDy=0;entryX=0;entryY=0.5;entryDx=0;entryDy=0;" edge="1" parent="1" source="JK_t3SRdudCWYbcd_Vwk-8" target="JK_t3SRdudCWYbcd_Vwk-76">
          <mxGeometry relative="1" as="geometry" />
        </mxCell>
        <mxCell id="JK_t3SRdudCWYbcd_Vwk-8" value="Workshop with per process&amp;nbsp;" style="rounded=0;whiteSpace=wrap;html=1;" vertex="1" parent="1">
          <mxGeometry x="940" y="290" width="120" height="60" as="geometry" />
        </mxCell>
        <mxCell id="JK_t3SRdudCWYbcd_Vwk-16" style="edgeStyle=orthogonalEdgeStyle;rounded=0;orthogonalLoop=1;jettySize=auto;html=1;exitX=0.5;exitY=0;exitDx=0;exitDy=0;entryX=0.5;entryY=1;entryDx=0;entryDy=0;" edge="1" parent="1" source="JK_t3SRdudCWYbcd_Vwk-13" target="JK_t3SRdudCWYbcd_Vwk-8">
          <mxGeometry relative="1" as="geometry">
            <mxPoint x="1040" y="450" as="targetPoint" />
          </mxGeometry>
        </mxCell>
        <mxCell id="JK_t3SRdudCWYbcd_Vwk-13" value="Process flow of screens of Process&amp;nbsp;" style="shape=document;whiteSpace=wrap;html=1;boundedLbl=1;" vertex="1" parent="1">
          <mxGeometry x="940" y="440" width="120" height="80" as="geometry" />
        </mxCell>
        <mxCell id="JK_t3SRdudCWYbcd_Vwk-18" value="Initiative jira ticket in Status &quot;New&quot;" style="shape=document;whiteSpace=wrap;html=1;boundedLbl=1;" vertex="1" parent="1">
          <mxGeometry x="-110" y="460" width="120" height="80" as="geometry" />
        </mxCell>
        <mxCell id="JK_t3SRdudCWYbcd_Vwk-21" style="edgeStyle=orthogonalEdgeStyle;rounded=0;orthogonalLoop=1;jettySize=auto;html=1;exitX=0.5;exitY=1;exitDx=0;exitDy=0;entryX=0.5;entryY=0;entryDx=0;entryDy=0;" edge="1" parent="1" source="JK_t3SRdudCWYbcd_Vwk-20" target="JK_t3SRdudCWYbcd_Vwk-18">
          <mxGeometry relative="1" as="geometry" />
        </mxCell>
        <mxCell id="JK_t3SRdudCWYbcd_Vwk-59" style="edgeStyle=orthogonalEdgeStyle;rounded=0;orthogonalLoop=1;jettySize=auto;html=1;exitX=1;exitY=0.5;exitDx=0;exitDy=0;entryX=0;entryY=0.5;entryDx=0;entryDy=0;" edge="1" parent="1" source="JK_t3SRdudCWYbcd_Vwk-20" target="JK_t3SRdudCWYbcd_Vwk-50">
          <mxGeometry relative="1" as="geometry" />
        </mxCell>
        <mxCell id="JK_t3SRdudCWYbcd_Vwk-20" value="Prepare Initiative jira ticket for site&amp;nbsp;" style="rounded=0;whiteSpace=wrap;html=1;" vertex="1" parent="1">
          <mxGeometry x="-110" y="350" width="120" height="60" as="geometry" />
        </mxCell>
        <mxCell id="JK_t3SRdudCWYbcd_Vwk-28" value="" style="edgeStyle=orthogonalEdgeStyle;rounded=0;orthogonalLoop=1;jettySize=auto;html=1;exitX=0.5;exitY=1;exitDx=0;exitDy=0;" edge="1" parent="1" source="JK_t3SRdudCWYbcd_Vwk-22" target="JK_t3SRdudCWYbcd_Vwk-20">
          <mxGeometry relative="1" as="geometry" />
        </mxCell>
        <mxCell id="JK_t3SRdudCWYbcd_Vwk-30" value="Yes" style="edgeLabel;html=1;align=center;verticalAlign=middle;resizable=0;points=[];" vertex="1" connectable="0" parent="JK_t3SRdudCWYbcd_Vwk-28">
          <mxGeometry x="-0.0222" relative="1" as="geometry">
            <mxPoint as="offset" />
          </mxGeometry>
        </mxCell>
        <mxCell id="JK_t3SRdudCWYbcd_Vwk-22" value="New site?" style="rhombus;whiteSpace=wrap;html=1;" vertex="1" parent="1">
          <mxGeometry x="-280" y="280" width="80" height="80" as="geometry" />
        </mxCell>
        <mxCell id="JK_t3SRdudCWYbcd_Vwk-43" style="edgeStyle=orthogonalEdgeStyle;rounded=0;orthogonalLoop=1;jettySize=auto;html=1;exitX=1;exitY=0.5;exitDx=0;exitDy=0;entryX=0;entryY=0.5;entryDx=0;entryDy=0;" edge="1" parent="1" source="JK_t3SRdudCWYbcd_Vwk-27" target="JK_t3SRdudCWYbcd_Vwk-22">
          <mxGeometry relative="1" as="geometry" />
        </mxCell>
        <mxCell id="JK_t3SRdudCWYbcd_Vwk-27" value="Start migration process" style="ellipse;whiteSpace=wrap;html=1;" vertex="1" parent="1">
          <mxGeometry x="-520" y="280" width="120" height="80" as="geometry" />
        </mxCell>
        <mxCell id="JK_t3SRdudCWYbcd_Vwk-77" style="edgeStyle=orthogonalEdgeStyle;rounded=0;orthogonalLoop=1;jettySize=auto;html=1;exitX=1;exitY=0.25;exitDx=0;exitDy=0;entryX=0.5;entryY=0;entryDx=0;entryDy=0;" edge="1" parent="1" source="JK_t3SRdudCWYbcd_Vwk-47" target="JK_t3SRdudCWYbcd_Vwk-76">
          <mxGeometry relative="1" as="geometry" />
        </mxCell>
        <mxCell id="JK_t3SRdudCWYbcd_Vwk-47" value="Process flow of screens of Process with changes if applicable&amp;nbsp;" style="shape=document;whiteSpace=wrap;html=1;boundedLbl=1;" vertex="1" parent="1">
          <mxGeometry x="930" y="130" width="120" height="80" as="geometry" />
        </mxCell>
        <mxCell id="JK_t3SRdudCWYbcd_Vwk-49" style="edgeStyle=orthogonalEdgeStyle;rounded=0;orthogonalLoop=1;jettySize=auto;html=1;exitX=0.5;exitY=0;exitDx=0;exitDy=0;entryX=0.592;entryY=0.838;entryDx=0;entryDy=0;entryPerimeter=0;" edge="1" parent="1" source="JK_t3SRdudCWYbcd_Vwk-8" target="JK_t3SRdudCWYbcd_Vwk-47">
          <mxGeometry relative="1" as="geometry" />
        </mxCell>
        <mxCell id="JK_t3SRdudCWYbcd_Vwk-58" style="edgeStyle=orthogonalEdgeStyle;rounded=0;orthogonalLoop=1;jettySize=auto;html=1;exitX=0.5;exitY=1;exitDx=0;exitDy=0;entryX=0.5;entryY=0;entryDx=0;entryDy=0;" edge="1" parent="1" source="JK_t3SRdudCWYbcd_Vwk-50" target="JK_t3SRdudCWYbcd_Vwk-56">
          <mxGeometry relative="1" as="geometry" />
        </mxCell>
        <mxCell id="JK_t3SRdudCWYbcd_Vwk-60" style="edgeStyle=orthogonalEdgeStyle;rounded=0;orthogonalLoop=1;jettySize=auto;html=1;exitX=1;exitY=0.5;exitDx=0;exitDy=0;entryX=0;entryY=0.5;entryDx=0;entryDy=0;" edge="1" parent="1" source="JK_t3SRdudCWYbcd_Vwk-50" target="JK_t3SRdudCWYbcd_Vwk-38">
          <mxGeometry relative="1" as="geometry" />
        </mxCell>
        <mxCell id="JK_t3SRdudCWYbcd_Vwk-50" value="Create jira epic ticket for client below initiative site&amp;nbsp;" style="rounded=0;whiteSpace=wrap;html=1;" vertex="1" parent="1">
          <mxGeometry x="80" y="290" width="120" height="60" as="geometry" />
        </mxCell>
        <mxCell id="JK_t3SRdudCWYbcd_Vwk-53" value="" style="edgeStyle=orthogonalEdgeStyle;rounded=0;orthogonalLoop=1;jettySize=auto;html=1;exitX=1;exitY=0.5;exitDx=0;exitDy=0;" edge="1" parent="1" source="JK_t3SRdudCWYbcd_Vwk-22">
          <mxGeometry relative="1" as="geometry">
            <mxPoint x="-240" y="280" as="sourcePoint" />
            <mxPoint x="80" y="320" as="targetPoint" />
            <Array as="points" />
          </mxGeometry>
        </mxCell>
        <mxCell id="JK_t3SRdudCWYbcd_Vwk-54" value="No" style="edgeLabel;html=1;align=center;verticalAlign=middle;resizable=0;points=[];" vertex="1" connectable="0" parent="JK_t3SRdudCWYbcd_Vwk-53">
          <mxGeometry x="-0.6489" relative="1" as="geometry">
            <mxPoint as="offset" />
          </mxGeometry>
        </mxCell>
        <mxCell id="JK_t3SRdudCWYbcd_Vwk-55" style="edgeStyle=orthogonalEdgeStyle;rounded=0;orthogonalLoop=1;jettySize=auto;html=1;exitX=0.5;exitY=1;exitDx=0;exitDy=0;" edge="1" parent="1" source="JK_t3SRdudCWYbcd_Vwk-38">
          <mxGeometry relative="1" as="geometry">
            <mxPoint x="330" y="417" as="targetPoint" />
          </mxGeometry>
        </mxCell>
        <mxCell id="JK_t3SRdudCWYbcd_Vwk-61" style="edgeStyle=orthogonalEdgeStyle;rounded=0;orthogonalLoop=1;jettySize=auto;html=1;exitX=1;exitY=0.5;exitDx=0;exitDy=0;entryX=0;entryY=0.5;entryDx=0;entryDy=0;" edge="1" parent="1" source="JK_t3SRdudCWYbcd_Vwk-38" target="JK_t3SRdudCWYbcd_Vwk-1">
          <mxGeometry relative="1" as="geometry" />
        </mxCell>
        <mxCell id="JK_t3SRdudCWYbcd_Vwk-38" value="Define overview of potential processes and update kick-off presentation" style="rounded=0;whiteSpace=wrap;html=1;" vertex="1" parent="1">
          <mxGeometry x="270" y="290" width="120" height="60" as="geometry" />
        </mxCell>
        <mxCell id="JK_t3SRdudCWYbcd_Vwk-56" value="Epic ticket for the client in status &quot;New&quot;" style="shape=document;whiteSpace=wrap;html=1;boundedLbl=1;" vertex="1" parent="1">
          <mxGeometry x="80" y="410" width="120" height="80" as="geometry" />
        </mxCell>
        <mxCell id="JK_t3SRdudCWYbcd_Vwk-67" style="edgeStyle=orthogonalEdgeStyle;rounded=0;orthogonalLoop=1;jettySize=auto;html=1;exitX=1;exitY=0.5;exitDx=0;exitDy=0;entryX=0;entryY=0.5;entryDx=0;entryDy=0;" edge="1" parent="1" source="JK_t3SRdudCWYbcd_Vwk-62" target="JK_t3SRdudCWYbcd_Vwk-8">
          <mxGeometry relative="1" as="geometry" />
        </mxCell>
        <mxCell id="JK_t3SRdudCWYbcd_Vwk-62" value="Plan workshops per process&amp;nbsp;" style="rounded=0;whiteSpace=wrap;html=1;" vertex="1" parent="1">
          <mxGeometry x="600" y="290" width="120" height="60" as="geometry" />
        </mxCell>
        <mxCell id="JK_t3SRdudCWYbcd_Vwk-65" style="edgeStyle=orthogonalEdgeStyle;rounded=0;orthogonalLoop=1;jettySize=auto;html=1;exitX=0.75;exitY=0;exitDx=0;exitDy=0;entryX=0.25;entryY=1;entryDx=0;entryDy=0;" edge="1" parent="1" source="JK_t3SRdudCWYbcd_Vwk-63" target="JK_t3SRdudCWYbcd_Vwk-62">
          <mxGeometry relative="1" as="geometry" />
        </mxCell>
        <mxCell id="JK_t3SRdudCWYbcd_Vwk-63" value="Updated overview of processes" style="shape=document;whiteSpace=wrap;html=1;boundedLbl=1;" vertex="1" parent="1">
          <mxGeometry x="540" y="430" width="120" height="80" as="geometry" />
        </mxCell>
        <mxCell id="JK_t3SRdudCWYbcd_Vwk-71" style="edgeStyle=orthogonalEdgeStyle;rounded=0;orthogonalLoop=1;jettySize=auto;html=1;exitX=0.5;exitY=1;exitDx=0;exitDy=0;entryX=0.5;entryY=0;entryDx=0;entryDy=0;" edge="1" parent="1" source="JK_t3SRdudCWYbcd_Vwk-68" target="JK_t3SRdudCWYbcd_Vwk-69">
          <mxGeometry relative="1" as="geometry" />
        </mxCell>
        <mxCell id="JK_t3SRdudCWYbcd_Vwk-68" value="Change status of client epic to &quot;Collect&lt;br/&gt;requirements&quot;" style="rounded=0;whiteSpace=wrap;html=1;" vertex="1" parent="1">
          <mxGeometry x="760" y="290" width="120" height="60" as="geometry" />
        </mxCell>
        <mxCell id="JK_t3SRdudCWYbcd_Vwk-69" value="Epic ticket for the client in status &quot;Collect&lt;br&gt;requirements&quot;" style="shape=document;whiteSpace=wrap;html=1;boundedLbl=1;" vertex="1" parent="1">
          <mxGeometry x="760" y="440" width="120" height="80" as="geometry" />
        </mxCell>
        <mxCell id="JK_t3SRdudCWYbcd_Vwk-72" style="edgeStyle=orthogonalEdgeStyle;rounded=0;orthogonalLoop=1;jettySize=auto;html=1;exitX=1;exitY=0.5;exitDx=0;exitDy=0;entryX=0.375;entryY=0.988;entryDx=0;entryDy=0;entryPerimeter=0;" edge="1" parent="1" source="JK_t3SRdudCWYbcd_Vwk-56" target="JK_t3SRdudCWYbcd_Vwk-69">
          <mxGeometry relative="1" as="geometry">
            <Array as="points">
              <mxPoint x="200" y="540" />
              <mxPoint x="805" y="540" />
            </Array>
          </mxGeometry>
        </mxCell>
        <mxCell id="JK_t3SRdudCWYbcd_Vwk-75" style="edgeStyle=orthogonalEdgeStyle;rounded=0;orthogonalLoop=1;jettySize=auto;html=1;exitX=1;exitY=0.75;exitDx=0;exitDy=0;entryX=0.5;entryY=0;entryDx=0;entryDy=0;" edge="1" parent="1" source="JK_t3SRdudCWYbcd_Vwk-74" target="JK_t3SRdudCWYbcd_Vwk-50">
          <mxGeometry relative="1" as="geometry">
            <Array as="points">
              <mxPoint x="200" y="150" />
              <mxPoint x="220" y="150" />
              <mxPoint x="220" y="245" />
              <mxPoint x="140" y="245" />
            </Array>
          </mxGeometry>
        </mxCell>
        <mxCell id="JK_t3SRdudCWYbcd_Vwk-74" value="Existing Initiative Jira ticket in Status&amp;nbsp; &amp;nbsp; &amp;nbsp; &amp;nbsp; &quot;In progress&quot;" style="shape=document;whiteSpace=wrap;html=1;boundedLbl=1;" vertex="1" parent="1">
          <mxGeometry x="80" y="120" width="120" height="80" as="geometry" />
        </mxCell>
        <mxCell id="JK_t3SRdudCWYbcd_Vwk-76" value="Work out the adjustments of process" style="rounded=0;whiteSpace=wrap;html=1;" vertex="1" parent="1">
          <mxGeometry x="1120" y="290" width="120" height="60" as="geometry" />
        </mxCell>
      </root>
    </mxGraphModel>
  </diagram>
</mxfile>
